<svg width="1797" height="660" viewBox="0 0 1797 660" fill="none" xmlns="http://www.w3.org/2000/svg">
<path d="M462.116 367.255V274.497C462.116 245.15 476.79 230.476 506.137 230.476H576.098L593.654 244.101V264.54H507.709C502.468 264.54 499.848 267.16 499.848 272.4V369.351C499.848 374.591 502.468 377.212 507.709 377.212H593.654V397.65L576.098 411.275H506.137C476.79 411.275 462.116 396.602 462.116 367.255ZM671.221 411.275C642.922 411.275 628.772 397.388 628.772 369.613C628.772 341.838 642.922 327.95 671.221 327.95H707.38V312.753C707.38 307.163 704.586 304.368 698.996 304.368H643.446V284.716L659.167 272.925H701.092C729.391 272.925 743.54 287.074 743.54 315.373V411.275H671.221ZM664.932 371.447C664.932 377.037 667.727 379.832 673.317 379.832H707.38V355.725H673.317C667.727 355.725 664.932 358.52 664.932 364.11V371.447ZM785.938 399.484V379.832H846.204C852.143 379.832 855.113 376.513 855.113 369.875C855.113 363.062 852.668 359.219 847.776 358.346L819.477 353.629C797.118 349.786 785.938 336.859 785.938 314.849C785.938 286.899 800.087 272.925 828.386 272.925H869.001L884.722 284.716V304.368H830.483C824.543 304.368 821.574 307.687 821.574 314.325C821.574 321.312 824.281 325.243 829.696 326.116L857.733 330.833C879.918 334.501 891.011 347.253 891.011 369.089C891.011 397.213 876.774 411.275 848.3 411.275H801.659L785.938 399.484ZM933.148 368.827V230.476H969.308V272.925H1014.38V304.368H969.308V371.447C969.308 377.037 972.103 379.832 977.693 379.832H1017V399.484L1001.28 411.275H975.597C947.298 411.275 933.148 397.126 933.148 368.827ZM1053.64 368.827V315.373C1053.64 287.074 1067.79 272.925 1096.08 272.925H1130.15C1158.45 272.925 1172.6 287.074 1172.6 315.373V355.463H1089.8V371.447C1089.8 377.037 1092.59 379.832 1098.18 379.832H1167.36V399.484L1151.63 411.275H1096.08C1067.79 411.275 1053.64 397.126 1053.64 368.827ZM1089.8 327.688H1136.44V312.753C1136.44 307.163 1133.64 304.368 1128.05 304.368H1098.18C1092.59 304.368 1089.8 307.163 1089.8 312.753V327.688ZM1217.67 360.966V217.375H1253.83V364.634C1253.83 375.465 1259.42 381.492 1270.6 382.714V413.896C1235.32 413.896 1217.67 396.252 1217.67 360.966ZM1309.27 360.966V217.375H1345.43V364.634C1345.43 375.465 1351.02 381.492 1362.2 382.714V413.896C1326.91 413.896 1309.27 396.252 1309.27 360.966ZM1400.87 368.827V272.925H1437.03V371.447C1437.03 377.037 1439.82 379.832 1445.41 379.832H1483.67V272.925H1519.83V411.275H1443.32C1415.02 411.275 1400.87 397.126 1400.87 368.827ZM1567.98 411.275V272.925H1725.72C1754.02 272.925 1768.17 287.074 1768.17 315.373V411.275H1732.01V312.753C1732.01 307.163 1729.21 304.368 1723.62 304.368H1686.15V411.275H1649.99V304.368H1604.14V411.275H1567.98Z" fill="#FA1E51"/>
<path d="M493.931 136.21C504.248 127.99 506.016 112.883 496.968 103.283C462.186 66.3795 418.153 39.2176 369.254 24.75C312.697 8.01689 252.363 9.07401 196.427 27.7782C140.49 46.4823 91.6561 81.9294 56.5399 129.317C21.4238 176.704 1.72338 233.74 0.107916 292.699C-1.50754 351.657 15.04 409.687 47.5086 458.926C79.9772 508.165 126.797 546.233 181.625 567.972C236.453 589.711 296.639 594.071 354.027 580.46C403.646 568.691 449.099 543.981 485.851 509.038C495.411 499.948 494.472 484.767 484.621 475.994V475.994C474.77 467.221 459.746 468.197 450.037 477.127C419.911 504.837 383.087 524.472 343.003 533.978C295.145 545.329 244.955 541.694 199.233 523.565C153.51 505.436 114.466 473.69 87.3893 432.628C60.3129 391.567 46.5135 343.174 47.8606 294.007C49.2078 244.84 65.6365 197.276 94.9208 157.759C124.205 118.241 164.929 88.681 211.576 73.0831C258.222 57.4852 308.536 56.6036 355.701 70.5578C395.204 82.2453 430.898 103.867 459.461 133.185C468.666 142.634 483.614 144.431 493.931 136.21V136.21Z" fill="#FA1E51"/>
<path d="M418.054 190.716C428.043 183.261 429.777 169.52 420.67 161.128C398.47 140.688 371.175 125.569 341.102 117.228C303.61 106.833 263.612 107.491 226.53 119.11C189.447 130.729 157.072 152.747 133.794 182.18C112.587 208.993 99.8625 240.777 96.9531 273.911C98.1464 286.612 96.9531 297.341 118.836 297.341C140.718 297.341 137.704 289.731 143.408 273.911C146.174 250.096 155.646 227.328 170.95 207.98C188.583 185.681 213.107 169.006 241.195 160.207C269.284 151.403 299.58 150.905 327.981 158.783C348.954 164.595 368.141 174.766 384.177 188.427C393.625 196.476 408.068 198.175 418.054 190.716Z" fill="#FA1E51"/>
<path d="M418.054 410.43C428.043 417.884 429.777 431.625 420.67 440.018C398.47 460.458 371.175 475.577 341.102 483.918C303.61 494.313 263.612 493.655 226.53 482.036C189.447 470.417 157.072 448.398 133.794 418.966C112.587 392.153 99.8625 360.369 96.9531 327.235C98.1464 314.534 96.9531 303.805 118.836 303.805C140.718 303.805 137.704 311.415 143.408 327.235C146.174 351.05 155.646 373.818 170.95 393.165C188.583 415.465 213.107 432.14 241.195 440.939C269.284 449.743 299.58 450.241 327.981 442.363C348.954 436.551 368.141 426.38 384.177 412.719C393.625 404.67 408.068 402.971 418.054 410.43Z" fill="#FA1E51"/>
<rect x="174.516" y="284.415" width="161.599" height="32.3198" rx="16.1599" fill="#FA1E51"/>
</svg>
